<svg width="64" height="64" viewBox="0 0 64 64" xmlns="http://www.w3.org/2000/svg">
  <defs>
    <linearGradient id="goldGradient" x1="0%" y1="0%" x2="100%" y2="100%">
      <stop offset="0%" style="stop-color:#FFD700;stop-opacity:1" />
      <stop offset="50%" style="stop-color:#FFA500;stop-opacity:1" />
      <stop offset="100%" style="stop-color:#FF8C00;stop-opacity:1" />
    </linearGradient>
    <linearGradient id="silverGradient" x1="0%" y1="0%" x2="100%" y2="100%">
      <stop offset="0%" style="stop-color:#C0C0C0;stop-opacity:1" />
      <stop offset="50%" style="stop-color:#A8A8A8;stop-opacity:1" />
      <stop offset="100%" style="stop-color:#808080;stop-opacity:1" />
    </linearGradient>
    <filter id="shadow" x="-20%" y="-20%" width="140%" height="140%">
      <feDropShadow dx="2" dy="2" stdDeviation="2" flood-color="#000000" flood-opacity="0.3"/>
    </filter>
  </defs>
  
  <!-- Shield shape -->
  <path d="M32 4 L56 16 L56 40 C56 48, 48 56, 32 60 C16 56, 8 48, 8 40 L8 16 Z" 
        fill="url(#goldGradient)" 
        stroke="#B8860B" 
        stroke-width="1"
        filter="url(#shadow)"/>
  
  <!-- Inner white field -->
  <path d="M32 7 L53 17 L53 40 C53 46, 47 52, 32 55 C17 52, 11 46, 11 40 L11 17 Z" 
        fill="white"/>
  
  <!-- Three diagonal silver bars -->
  <rect x="16" y="24" width="32" height="4" rx="2" fill="url(#silverGradient)" transform="rotate(15 32 26)" filter="url(#shadow)"/>
  <rect x="16" y="32" width="32" height="4" rx="2" fill="url(#silverGradient)" transform="rotate(15 32 34)" filter="url(#shadow)"/>
  <rect x="16" y="40" width="32" height="4" rx="2" fill="url(#silverGradient)" transform="rotate(15 32 42)" filter="url(#shadow)"/>
</svg>