<svg width="32" height="32" viewBox="0 0 32 32" xmlns="http://www.w3.org/2000/svg">
  <defs>
    <linearGradient id="goldGradient" x1="0%" y1="0%" x2="100%" y2="100%">
      <stop offset="0%" style="stop-color:#FFD700;stop-opacity:1" />
      <stop offset="50%" style="stop-color:#FFA500;stop-opacity:1" />
      <stop offset="100%" style="stop-color:#FF8C00;stop-opacity:1" />
    </linearGradient>
    <linearGradient id="silverGradient" x1="0%" y1="0%" x2="100%" y2="100%">
      <stop offset="0%" style="stop-color:#C0C0C0;stop-opacity:1" />
      <stop offset="50%" style="stop-color:#A8A8A8;stop-opacity:1" />
      <stop offset="100%" style="stop-color:#808080;stop-opacity:1" />
    </linearGradient>
    <filter id="shadow" x="-20%" y="-20%" width="140%" height="140%">
      <feDropShadow dx="1" dy="1" stdDeviation="1" flood-color="#000000" flood-opacity="0.3"/>
    </filter>
  </defs>
  
  <!-- Shield shape -->
  <path d="M16 2 L28 8 L28 20 C28 24, 24 28, 16 30 C8 28, 4 24, 4 20 L4 8 Z" 
        fill="url(#goldGradient)" 
        stroke="#B8860B" 
        stroke-width="0.5"
        filter="url(#shadow)"/>
  
  <!-- Inner white field -->
  <path d="M16 3.5 L26.5 8.5 L26.5 20 C26.5 23, 23.5 26, 16 27.5 C8.5 26, 5.5 23, 5.5 20 L5.5 8.5 Z" 
        fill="white"/>
  
  <!-- Three diagonal silver bars -->
  <rect x="8" y="12" width="16" height="2" rx="1" fill="url(#silverGradient)" transform="rotate(15 16 13)" filter="url(#shadow)"/>
  <rect x="8" y="16" width="16" height="2" rx="1" fill="url(#silverGradient)" transform="rotate(15 16 17)" filter="url(#shadow)"/>
  <rect x="8" y="20" width="16" height="2" rx="1" fill="url(#silverGradient)" transform="rotate(15 16 21)" filter="url(#shadow)"/>
</svg>